<?xml version="1.0" encoding="UTF-8" standalone="no"?><!-- Generator: Gravit.io --><svg xmlns="http://www.w3.org/2000/svg" xmlns:xlink="http://www.w3.org/1999/xlink" style="isolation:isolate" viewBox="715 454 170 180" width="170pt" height="180pt"><defs><clipPath id="_clipPath_b8InFWrPZ3dOoj2vfneVnkIx2XescTk4"><rect x="715" y="454" width="170" height="180"/></clipPath></defs><g clip-path="url(#_clipPath_b8InFWrPZ3dOoj2vfneVnkIx2XescTk4)"><linearGradient id="_lgradient_0" x1="0.25999999999999446" y1="-0.026874999999999538" x2="0.33628021049380785" y2="1.08265533445548" gradientTransform="matrix(50,0,0,100,835,534)" gradientUnits="userSpaceOnUse"><stop offset="2.083333333333333%" stop-opacity="1" style="stop-color:rgb(128,128,128)"/><stop offset="30.827007616418744%" stop-opacity="1" style="stop-color:rgb(255,255,255)"/><stop offset="97.91666666666666%" stop-opacity="1" style="stop-color:rgb(255,255,255)"/></linearGradient><path d=" M 835 534 C 862.596 534 885 556.404 885 584 C 885 611.596 862.596 634 835 634 L 835 634 L 835 614 C 851.557 614 865 600.557 865 584 C 865 567.443 851.557 554 835 554 L 835 554 L 835 534 Z " fill="url(#_lgradient_0)"/><path d=" M 815 614 L 775 614 L 775 614 L 775 574 L 755 574 L 755 614 L 755 614 L 755 634 L 815 634 L 835 634 C 862.596 634 885 611.596 885 584 L 865 584 L 865 584 C 865 600.557 851.557 614 835 614 L 835 614 L 815 614 Z  M 775 534 L 835 534 C 851.557 534 865 520.557 865 504 C 865 487.443 851.557 474 835 474 L 835 474 L 735 474 L 735 474 L 735 634 L 715 634 L 715 474 L 715 454 L 835 454 L 835 454 L 835 454 C 862.596 454 885 476.404 885 504 C 885 531.596 862.596 554 835 554 L 755 554 L 755 534 L 755 494 L 775 494 L 775 534 L 775 534 L 775 534 Z " fill-rule="evenodd" fill="rgb(255,255,255)"/></g></svg>